<?xml version="1.0" encoding="utf-8"?>
<!-- Generator: Adobe Illustrator 15.0.0, SVG Export Plug-In . SVG Version: 6.00 Build 0)  -->
<!DOCTYPE svg PUBLIC "-//W3C//DTD SVG 1.1//EN" "http://www.w3.org/Graphics/SVG/1.1/DTD/svg11.dtd">
<svg version="1.1" id="Layer_1" xmlns="http://www.w3.org/2000/svg" xmlns:xlink="http://www.w3.org/1999/xlink" x="0px" y="0px"
	 width="280px" height="280px" viewBox="0 0 280 280" enable-background="new 0 0 280 280" xml:space="preserve">
<circle fill="none" stroke="#4582C3" stroke-width="8" stroke-miterlimit="10" cx="197.605" cy="83.243" r="68.24"/>
<path fill="#4582C3" d="M219.942,127.355c-0.387,0-0.771,0.02-1.155,0.029c-6.362-38.722-39.967-68.27-80.491-68.27
	c-26.333,0-49.747,12.479-64.666,31.841c-34.147,2.388-61.111,30.825-61.111,65.579c0,36.319,29.443,65.763,65.762,65.763
	c10.134,0,48.769,0,60.015,0c17.536,0,68.009,0,81.646,0c26.218,0,47.472-21.254,47.472-47.472S246.16,127.355,219.942,127.355z"/>
<line fill="none" stroke="#4582C3" stroke-width="8" stroke-miterlimit="10" x1="121.53" y1="185.288" x2="64.505" y2="291.749"/>
<line fill="none" stroke="#4582C3" stroke-width="8" stroke-miterlimit="10" x1="179.814" y1="167.664" x2="122.789" y2="274.125"/>
<line fill="none" stroke="#4582C3" stroke-width="8" stroke-miterlimit="10" x1="150.672" y1="176.477" x2="93.646" y2="282.938"/>
<line fill="none" stroke="#4582C3" stroke-width="8" stroke-miterlimit="10" x1="208.956" y1="158.853" x2="151.931" y2="265.313"/>
<line fill="none" stroke="#FFFFFF" stroke-width="8" stroke-miterlimit="10" x1="32.613" y1="226.039" x2="258.212" y2="226.039"/>
<line fill="none" stroke="#FFFFFF" stroke-width="8" stroke-miterlimit="10" x1="50.866" y1="247.951" x2="276.465" y2="247.951"/>
<line fill="none" stroke="#FFFFFF" stroke-width="8" stroke-miterlimit="10" x1="31.961" y1="276.997" x2="278.961" y2="276.997"/>
<rect x="3.002" y="3.002" fill="none" stroke="#FFFFFF" stroke-width="8" stroke-miterlimit="10" width="273.996" height="273.996"/>
<line fill="none" stroke="#FFFFFF" stroke-width="8" stroke-miterlimit="10" x1="12.819" y1="269.047" x2="238.418" y2="269.047"/>
</svg>
